<svg xmlns="http://www.w3.org/2000/svg" xml:space="preserve" id="Layer_1" x="0" y="0" viewBox="0 0 70 68.4"><style>.st0{fill:#fff}</style><path d="M35 0C15.7 0 0 15.7 0 35c0 15.5 10 28.6 23.9 33.2 1.7.3 2.4-.8 2.4-1.7V60c-9.7 2.1-11.8-4.1-11.8-4.1-1.6-4-3.9-5.1-3.9-5.1-3.2-2.2.2-2.1.2-2.1 3.5.2 5.4 3.6 5.4 3.6 3.1 5.4 8.2 3.8 10.2 2.9.3-2.3 1.2-3.8 2.2-4.7-7.8-.9-15.9-3.9-15.9-17.3 0-3.8 1.4-6.9 3.6-9.4-.4-.9-1.6-4.4.3-9.3 0 0 2.9-.9 9.6 3.6 2.8-.8 5.8-1.2 8.8-1.2s6 .4 8.8 1.2c6.7-4.5 9.6-3.6 9.6-3.6 1.9 4.8.7 8.4.3 9.3 2.2 2.5 3.6 5.6 3.6 9.4 0 13.4-8.2 16.4-16 17.3 1.3 1.1 2.4 3.2 2.4 6.5v9.6c0 .9.6 2 2.4 1.7C60 63.5 70 50.4 70 35 70 15.6 54.3 0 35 0" class="st0"/><path d="M13.3 50.2c-.1.2-.4.2-.6.1-.3-.1-.4-.4-.3-.5.1-.2.3-.2.6-.1.2.1.3.3.3.5M14.7 51.8c-.2.2-.5.1-.7-.2-.2-.2-.3-.6-.1-.7.2-.2.5-.1.7.2.2.2.2.5.1.7M16.1 53.8c-.2.1-.6 0-.8-.3s-.2-.7 0-.8.6 0 .8.3.2.7 0 .8M17.9 55.8c-.2.2-.6.2-.9-.1s-.4-.7-.2-.9.6-.2.9.1c.4.2.4.7.2.9M20.6 56.9c-.1.3-.5.4-.9.3s-.7-.4-.6-.7.5-.4.9-.3.6.4.6.7M23.4 57.1c0 .3-.3.5-.7.5s-.8-.2-.8-.5.3-.5.7-.5c.5 0 .8.2.8.5M26.1 56.6c0 .3-.2.6-.7.6-.4.1-.8-.1-.8-.4-.1-.3.2-.6.6-.7.5.1.8.3.9.5" class="st0"/></svg>