<?xml version="1.0" encoding="UTF-8" standalone="no"?>
<!DOCTYPE svg PUBLIC "-//W3C//DTD SVG 1.1//EN" "http://www.w3.org/Graphics/SVG/1.1/DTD/svg11.dtd">
<svg width="100%" height="100%" viewBox="0 0 1200 1200" version="1.1" xmlns="http://www.w3.org/2000/svg" xmlns:xlink="http://www.w3.org/1999/xlink" xml:space="preserve" xmlns:serif="http://www.serif.com/" style="fill-rule:evenodd;clip-rule:evenodd;stroke-linejoin:round;stroke-miterlimit:2;">
    <g transform="matrix(2.0202,0,0,2.0202,82.828,82.828)">
        <path d="M512,256.052C512,222.135 469.525,189.991 404.403,170.058C419.431,103.684 412.752,50.876 383.322,33.97C376.538,30.004 368.607,28.126 359.945,28.126L359.945,51.398C364.745,51.398 368.607,52.338 371.842,54.112C386.035,62.252 392.192,93.247 387.392,133.114C386.244,142.924 384.365,153.256 382.069,163.796C361.614,158.787 339.281,154.925 315.799,152.421C301.711,133.114 287.1,115.581 272.385,100.24C306.407,68.618 338.342,51.294 360.049,51.294L360.049,28.021C331.349,28.021 293.779,48.476 255.791,83.959C217.804,48.685 180.233,28.439 151.534,28.439L151.534,51.711C173.137,51.711 205.176,68.931 239.198,100.344C224.587,115.685 209.976,133.114 196.096,152.421C172.51,154.925 150.177,158.787 129.722,163.901C127.322,153.464 125.547,143.341 124.295,133.636C119.39,93.769 125.443,62.774 139.532,54.529C142.663,52.651 146.733,51.816 151.534,51.816L151.534,28.543C142.767,28.543 134.836,30.422 127.948,34.387C98.622,51.294 92.047,103.997 107.18,170.162C42.267,190.2 0,222.239 0,256.052C0,289.97 42.475,322.113 107.597,342.046C92.569,408.421 99.248,461.228 128.678,478.135C135.462,482.1 143.393,483.979 152.16,483.979C180.859,483.979 218.43,463.524 256.417,428.041C294.405,463.315 331.976,483.561 360.675,483.561C369.442,483.561 377.373,481.683 384.261,477.717C413.587,460.81 420.161,408.108 405.029,341.942C469.733,322.009 512,289.865 512,256.052ZM376.121,186.443C372.259,199.905 367.459,213.786 362.032,227.666C357.753,219.317 353.265,210.968 348.36,202.619C343.56,194.27 338.446,186.13 333.332,178.198C348.152,180.39 362.449,183.103 376.121,186.443ZM328.323,297.588C320.183,311.677 311.834,325.035 303.172,337.455C287.622,338.811 271.863,339.542 256,339.542C240.241,339.542 224.483,338.811 209.037,337.559C200.375,325.14 191.922,311.886 183.781,297.901C175.85,284.23 168.649,270.35 162.074,256.365C168.545,242.381 175.85,228.396 183.677,214.725C191.817,200.636 200.166,187.278 208.828,174.859C224.378,173.502 240.137,172.771 256,172.771C271.759,172.771 287.517,173.502 302.963,174.754C311.625,187.173 320.078,200.427 328.219,214.412C336.15,228.083 343.351,241.963 349.926,255.948C343.351,269.932 336.15,283.917 328.323,297.588ZM362.032,284.021C367.667,298.006 372.468,311.99 376.434,325.557C362.762,328.897 348.36,331.715 333.437,333.906C338.55,325.87 343.664,317.626 348.465,309.172C353.265,300.823 357.753,292.37 362.032,284.021ZM256.209,395.375C246.503,385.357 236.797,374.19 227.196,361.98C236.589,362.397 246.19,362.71 255.896,362.71C265.706,362.71 275.411,362.501 284.908,361.98C275.516,374.19 265.81,385.357 256.209,395.375ZM178.563,333.906C163.744,331.715 149.446,329.001 135.775,325.662C139.636,312.199 144.437,298.319 149.864,284.439C154.143,292.788 158.63,301.137 163.535,309.486C168.44,317.834 173.45,325.975 178.563,333.906ZM255.687,116.729C265.393,126.748 275.098,137.914 284.7,150.125C275.307,149.707 265.706,149.394 256,149.394C246.19,149.394 236.484,149.603 226.987,150.125C236.38,137.914 246.086,126.748 255.687,116.729ZM178.459,178.198C173.345,186.234 168.232,194.479 163.431,202.932C158.63,211.281 154.143,219.63 149.864,227.979C144.228,213.994 139.428,200.01 135.462,186.443C149.133,183.208 163.535,180.39 178.459,178.198ZM84.011,308.859C47.067,293.101 23.168,272.437 23.168,256.052C23.168,239.667 47.067,218.899 84.011,203.245C92.987,199.384 102.797,195.94 112.92,192.704C118.868,213.159 126.695,234.449 136.401,256.261C126.8,277.968 119.077,299.154 113.233,319.504C102.901,316.269 93.091,312.721 84.011,308.859ZM140.158,457.993C125.965,449.852 119.808,418.857 124.608,378.991C125.756,369.181 127.635,358.849 129.931,348.308C150.386,353.318 172.719,357.179 196.201,359.684C210.289,378.991 224.9,396.523 239.615,411.865C205.593,443.486 173.658,460.81 151.951,460.81C147.255,460.706 143.289,459.767 140.158,457.993ZM387.705,378.469C392.61,418.335 386.557,449.331 372.468,457.575C369.337,459.454 365.267,460.289 360.466,460.289C338.863,460.289 306.824,443.069 272.802,411.656C287.413,396.315 302.024,378.886 315.904,359.579C339.49,357.075 361.823,353.213 382.278,348.099C384.678,358.64 386.557,368.763 387.705,378.469ZM427.884,308.859C418.909,312.721 409.099,316.165 398.976,319.4C393.027,298.945 385.2,277.655 375.494,255.843C385.096,234.136 392.819,212.951 398.663,192.6C408.995,195.835 418.805,199.384 427.989,203.245C464.933,219.004 488.832,239.667 488.832,256.052C488.727,272.437 464.828,293.205 427.884,308.859Z" style="fill:rgb(97,218,251);fill-rule:nonzero;"/>
        <circle cx="255.896" cy="256.052" r="47.693" style="fill:rgb(97,218,251);"/>
    </g>
</svg>
