<svg xmlns="http://www.w3.org/2000/svg" xml:space="preserve" style="fill-rule:evenodd;clip-rule:evenodd;stroke-linejoin:round;stroke-miterlimit:1.41421" viewBox="0 0 512 512"><path d="M512 256.052c0-33.917-42.475-66.061-107.597-85.994 15.028-66.374 8.349-119.182-21.081-136.088-6.784-3.966-14.715-5.844-23.377-5.844v23.272c4.8 0 8.662.94 11.897 2.714 14.193 8.14 20.35 39.135 15.55 79.002-1.148 9.81-3.027 20.142-5.323 30.682-20.455-5.009-42.788-8.871-66.27-11.375-14.088-19.307-28.699-36.84-43.414-52.181 34.022-31.622 65.957-48.946 87.664-48.946V28.021c-28.7 0-66.27 20.455-104.258 55.938-37.987-35.274-75.558-55.52-104.257-55.52v23.272c21.603 0 53.642 17.22 87.664 48.633-14.611 15.341-29.222 32.77-43.102 52.077-23.586 2.504-45.919 6.366-66.374 11.48a315 315 0 0 1-5.427-30.265c-4.905-39.867 1.148-70.862 15.237-79.107 3.131-1.878 7.201-2.713 12.002-2.713V28.543c-8.767 0-16.698 1.879-23.586 5.844-29.326 16.907-35.901 69.61-20.768 135.775C42.267 190.2 0 222.239 0 256.052c0 33.918 42.475 66.061 107.597 85.994-15.028 66.375-8.349 119.182 21.081 136.089 6.784 3.965 14.715 5.844 23.482 5.844 28.699 0 66.27-20.455 104.257-55.938 37.988 35.274 75.559 55.52 104.258 55.52 8.767 0 16.698-1.878 23.586-5.844 29.326-16.907 35.9-69.609 20.768-135.775C469.733 322.009 512 289.865 512 256.052m-135.879-69.609c-3.862 13.462-8.662 27.343-14.089 41.223-4.279-8.349-8.767-16.698-13.672-25.047-4.8-8.349-9.914-16.489-15.028-24.421 14.82 2.192 29.117 4.905 42.789 8.245m-47.798 111.145c-8.14 14.089-16.489 27.447-25.151 39.867-15.55 1.356-31.309 2.087-47.172 2.087-15.759 0-31.517-.731-46.963-1.983-8.662-12.419-17.115-25.673-25.256-39.658-7.931-13.671-15.132-27.551-21.707-41.536 6.471-13.984 13.776-27.969 21.603-41.64 8.14-14.089 16.489-27.447 25.151-39.866 15.55-1.357 31.309-2.088 47.172-2.088 15.759 0 31.517.731 46.963 1.983 8.662 12.419 17.115 25.673 25.256 39.658 7.931 13.671 15.132 27.551 21.707 41.536-6.575 13.984-13.776 27.969-21.603 41.64m33.709-13.567a448 448 0 0 1 14.402 41.536c-13.672 3.34-28.074 6.158-42.997 8.349 5.113-8.036 10.227-16.28 15.028-24.734 4.8-8.349 9.288-16.802 13.567-25.151M256.209 395.375c-9.706-10.018-19.412-21.185-29.013-33.395 9.393.417 18.994.73 28.7.73 9.81 0 19.515-.209 29.012-.73a407 407 0 0 1-28.699 33.395m-77.646-61.469c-14.819-2.191-29.117-4.905-42.788-8.244 3.861-13.463 8.662-27.343 14.089-41.223 4.279 8.349 8.766 16.698 13.671 25.047a693 693 0 0 0 15.028 24.42m77.124-217.177c9.706 10.019 19.411 21.185 29.013 33.396-9.393-.418-18.994-.731-28.7-.731-9.81 0-19.516.209-29.013.731a407 407 0 0 1 28.7-33.396m-77.228 61.469c-5.114 8.036-10.227 16.281-15.028 24.734-4.801 8.349-9.288 16.698-13.567 25.047a447 447 0 0 1-14.402-41.536 507 507 0 0 1 42.997-8.245M84.011 308.859c-36.944-15.758-60.843-36.422-60.843-52.807s23.899-37.153 60.843-52.807c8.976-3.861 18.786-7.305 28.909-10.541 5.948 20.455 13.775 41.745 23.481 63.557-9.601 21.707-17.324 42.893-23.168 63.243-10.332-3.235-20.142-6.783-29.222-10.645m56.147 149.134c-14.193-8.141-20.35-39.136-15.55-79.002 1.148-9.81 3.027-20.142 5.323-30.683 20.455 5.01 42.788 8.871 66.27 11.376 14.088 19.307 28.699 36.839 43.414 52.181-34.022 31.621-65.957 48.945-87.664 48.945-4.696-.104-8.662-1.043-11.793-2.817m247.547-79.524c4.905 39.866-1.148 70.862-15.237 79.106-3.131 1.879-7.201 2.714-12.002 2.714-21.603 0-53.642-17.22-87.664-48.633 14.611-15.341 29.222-32.77 43.102-52.077 23.586-2.504 45.919-6.366 66.374-11.48 2.4 10.541 4.279 20.664 5.427 30.37m40.179-69.61c-8.975 3.862-18.785 7.306-28.908 10.541-5.949-20.455-13.776-41.745-23.482-63.557 9.602-21.707 17.325-42.892 23.169-63.243 10.332 3.235 20.142 6.784 29.326 10.645 36.944 15.759 60.843 36.422 60.843 52.807-.105 16.385-24.004 37.153-60.948 52.807" style="fill:#61dafb;fill-rule:nonzero"/><circle cx="255.896" cy="256.052" r="47.693" style="fill:#61dafb"/></svg>