<?xml version="1.0" encoding="UTF-8" standalone="no"?>
<!DOCTYPE svg PUBLIC "-//W3C//DTD SVG 1.1//EN" "http://www.w3.org/Graphics/SVG/1.1/DTD/svg11.dtd">
<svg width="100%" height="100%" viewBox="0 0 16 16" version="1.1" xmlns="http://www.w3.org/2000/svg" xmlns:xlink="http://www.w3.org/1999/xlink" xml:space="preserve" xmlns:serif="http://www.serif.com/" style="fill-rule:evenodd;clip-rule:evenodd;stroke-linejoin:round;stroke-miterlimit:2;">
    <g transform="matrix(0.0154687,0,0,0.0154687,-1.28125,-1.28125)">
        <path d="M388.957,187.295C432.6,187.295 497.325,222.083 566.057,285.543C536.539,316.535 507.022,351.745 478.982,390.749C431.333,395.808 386.216,403.61 344.893,413.941C340.044,392.856 336.458,372.406 333.929,352.8C324.02,272.26 336.248,209.644 364.711,192.988C371.036,189.194 379.258,187.507 388.957,187.507L388.957,187.295ZM365.976,1008.07C337.303,991.62 324.865,929.004 334.561,848.467C336.881,828.649 340.677,807.776 345.315,786.481C386.638,796.602 431.755,804.402 479.194,809.463C507.654,848.467 537.172,883.885 566.899,914.879C498.168,978.76 433.652,1013.76 389.8,1013.76C380.313,1013.55 372.301,1011.65 365.976,1008.07ZM866.071,847.412C875.98,927.95 863.752,990.568 835.289,1007.22C828.964,1011.02 820.742,1012.71 811.043,1012.71C767.4,1012.71 702.675,977.917 633.943,914.457C663.461,883.465 692.978,848.255 721.018,809.251C768.667,804.192 813.784,796.39 855.107,786.059C859.956,807.354 863.752,827.804 866.071,847.412ZM600.422,881.566C580.814,861.327 561.206,838.768 541.81,814.101C560.786,814.944 580.182,815.576 599.79,815.576C619.608,815.576 639.214,815.154 658.4,814.101C639.426,838.768 619.818,861.327 600.422,881.566ZM746.107,684.016C729.663,712.479 712.796,739.465 695.297,764.556C663.883,767.295 632.046,768.772 600,768.772C568.164,768.772 536.329,767.295 505.125,764.766C487.626,739.677 470.549,712.901 454.103,684.649C438.081,657.03 423.533,628.99 410.25,600.737C423.323,572.487 438.081,544.234 453.893,516.616C470.337,488.153 487.204,461.168 504.703,436.079C536.117,433.337 567.954,431.861 600,431.861C631.836,431.861 663.671,433.337 694.875,435.867C712.374,460.955 729.451,487.731 745.897,515.984C761.919,543.602 776.467,571.642 789.75,599.895C776.467,628.145 761.919,656.398 746.107,684.016ZM443.562,757.386C413.624,752.96 384.739,747.477 357.121,740.731C364.921,713.533 374.62,685.493 385.584,657.453C394.228,674.319 403.293,691.186 413.202,708.053C423.111,724.917 433.232,741.364 443.562,757.386ZM814.206,656.608C825.59,684.861 835.289,713.111 843.301,740.519C815.681,747.267 786.586,752.96 756.438,757.386C766.768,741.152 777.099,724.497 786.798,707.418C796.495,690.552 805.562,673.475 814.206,656.608ZM252.547,706.786C177.913,674.952 129.632,633.206 129.632,600.105C129.632,567.004 177.913,525.048 252.547,493.424C270.681,485.624 290.499,478.667 310.949,472.129C322.966,513.452 338.778,556.463 358.386,600.527C338.99,644.38 323.388,687.18 311.582,728.291C290.709,721.756 270.891,714.588 252.547,706.786ZM947.241,706.786C929.109,714.588 909.291,721.546 888.841,728.081C876.822,686.758 861.01,643.747 841.402,599.683C860.8,555.83 876.402,513.032 888.208,471.919C909.081,478.454 928.899,485.624 947.453,493.424C1022.09,525.261 1070.37,567.004 1070.37,600.105C1070.16,633.206 1021.88,675.162 947.241,706.786ZM599.79,503.756C652.967,503.756 696.139,546.928 696.139,600.105C696.139,653.282 652.967,696.455 599.79,696.455C546.613,696.455 503.44,653.282 503.44,600.105C503.44,546.928 546.613,503.756 599.79,503.756ZM443.351,442.824C433.02,459.059 422.691,475.715 412.992,492.792C403.293,509.659 394.228,526.525 385.584,543.392C374.198,515.139 364.501,486.889 356.489,459.481C384.107,452.945 413.202,447.252 443.351,442.824ZM842.669,459.481C834.867,486.677 825.17,514.719 814.206,542.76C805.562,525.893 796.495,509.026 786.586,492.16C776.889,475.293 766.558,458.848 756.226,442.824C786.166,447.252 815.049,452.733 842.669,459.481ZM809.99,186.453L809.99,139.648L810.2,139.649L810.2,186.452L809.99,186.453L809.99,186.662C819.687,186.662 827.489,188.561 834.024,192.145C862.697,208.59 875.135,271.206 865.439,351.745C863.119,371.564 859.323,392.436 854.685,413.729C813.362,403.61 768.245,395.808 720.806,390.749C692.346,351.745 662.828,316.325 633.101,285.333C701.722,221.553 766.141,186.564 809.99,186.453ZM599.368,318.644C618.976,338.885 638.582,361.442 657.98,386.111C639.004,385.267 619.608,384.634 600,384.634C580.182,384.634 560.574,385.056 541.388,386.111C560.364,361.442 579.972,338.885 599.368,318.644ZM388.957,140.281L388.957,140.491C371.246,140.491 355.224,144.287 341.309,152.297C282.064,186.452 268.782,292.923 299.353,426.59C168.216,467.071 82.828,531.796 82.828,600.105C82.828,668.626 168.636,733.562 300.196,773.83C269.836,907.921 283.329,1014.6 342.784,1048.76C356.489,1056.77 372.511,1060.56 390.222,1060.56C448.2,1060.56 524.101,1019.24 600.842,947.558C677.586,1018.82 753.487,1059.72 811.465,1059.72C829.176,1059.72 845.198,1055.92 859.113,1047.91C918.358,1013.76 931.639,907.289 901.069,773.62C1031.78,733.352 1117.17,668.414 1117.17,600.105C1117.17,531.586 1031.36,466.648 899.804,426.38C930.164,292.291 916.671,185.608 857.216,151.454C843.566,143.474 827.617,139.679 810.2,139.649L810.2,139.436C752.22,139.436 676.321,180.759 599.578,252.442C522.836,181.182 446.935,140.281 388.957,140.281Z" style="fill-rule:nonzero;"/>
    </g>
</svg>
